<?xml version="1.0" encoding="UTF-8"?>
<!DOCTYPE svg PUBLIC "-//W3C//DTD SVG 1.1//EN" "http://www.w3.org/Graphics/SVG/1.1/DTD/svg11.dtd">
<svg xmlns="http://www.w3.org/2000/svg" xml:space="preserve" width="180px" height="180px" version="1.1" style="shape-rendering:geometricPrecision; text-rendering:geometricPrecision; image-rendering:optimizeQuality; fill-rule:evenodd; clip-rule:evenodd"
viewBox="0 0 49.99 49.99"
 xmlns:xlink="http://www.w3.org/1999/xlink">
 <defs>
  <style type="text/css">
   .str0 {stroke:#FEFEFE;stroke-width:1.74;stroke-miterlimit:22.9256}
   .fil1 {fill:#FEFEFE}
   .fil2 {fill:#2B2A29}
   .fil0 {fill:#3B82F6}
  </style>
 </defs>
 <g id="Слой_x0020_1">
  <g id="_1703897506032">
   <circle class="fil0" cx="24.99" cy="24.99" r="24.99"/>
   <circle class="fil1 str0" cx="24.99" cy="24.99" r="9.22"/>
  </g>
  <g id="_1703897506080">
   <path class="fil2" d="M25.06 30.25c0.18,0.02 0.46,0 0.65,0l1.95 0c0.42,0 0.76,-0.05 1.13,-0.17 0.34,-0.12 0.54,-0.28 0.79,-0.51 0.51,-0.48 0.68,-1.2 0.68,-1.92 0,-0.44 0,-0.87 0,-1.3 0,-0.25 0.01,-1.12 0,-1.29 -0.13,-0.01 -1.07,0.03 -1.26,0.04 -0.87,0.05 -1.91,0.1 -2.64,0.62 -0.09,0.07 -0.27,0.21 -0.35,0.29 -0.25,0.27 -0.36,0.43 -0.52,0.78 -0.15,0.3 -0.22,0.66 -0.28,1.02 -0.06,0.37 -0.09,0.82 -0.11,1.2 -0.01,0.22 -0.05,1.09 -0.04,1.24z"/>
   <path class="fil2" d="M19.73 25.05c-0.01,0.42 0,0.88 0,1.31 0,0.43 0,0.87 0,1.3 0,0.89 0.24,1.46 0.69,1.91 0.44,0.45 1.03,0.68 1.91,0.69 0.86,0 1.73,0 2.6,-0.01 0.01,-0.18 -0.01,-0.44 -0.02,-0.63 -0.03,-0.83 -0.07,-2.13 -0.42,-2.85 -0.09,-0.19 -0.23,-0.45 -0.37,-0.6 -0.15,-0.16 -0.22,-0.25 -0.41,-0.39 -0.78,-0.57 -1.78,-0.63 -2.73,-0.68 -0.26,-0.02 -1.02,-0.05 -1.25,-0.05z"/>
   <path class="fil2" d="M30.26 24.92c0.01,-0.86 -0.01,-1.73 0,-2.59 0,-0.88 -0.24,-1.48 -0.68,-1.92 -0.46,-0.45 -1.03,-0.68 -1.92,-0.68 -0.43,0 -0.86,0 -1.3,0 -0.43,0 -0.88,-0.01 -1.3,0 -0.01,0.4 0.03,0.85 0.04,1.24 0.02,0.41 0.05,0.81 0.11,1.2 0.07,0.5 0.23,1.05 0.51,1.44l0.13 0.18c0.73,0.91 1.95,1.03 3.14,1.09 0.22,0.01 1.12,0.06 1.27,0.04z"/>
   <path class="fil2" d="M19.73 24.93c0.18,0.01 1.03,-0.04 1.26,-0.05 1.11,-0.05 2.24,-0.16 2.98,-0.91 0.1,-0.1 0.2,-0.22 0.29,-0.35 0.09,-0.12 0.17,-0.26 0.24,-0.42 0.14,-0.32 0.22,-0.65 0.27,-1.02 0.09,-0.56 0.12,-1.24 0.14,-1.81 0.01,-0.19 0.03,-0.46 0.02,-0.64 -0.87,0 -1.74,0 -2.6,0 -0.88,0.01 -1.45,0.23 -1.91,0.68 -0.45,0.45 -0.68,1.04 -0.69,1.92 0,0.86 0.01,1.73 0,2.6z"/>
  </g>
 </g>
</svg>
